<svg aria-hidden="true" style="position:absolute;width:0;height:0;overflow:hidden" xmlns="http://www.w3.org/2000/svg">
  <defs>
  <symbol id="icon-logo-black" viewBox="0 0 40 32">
     <path d="M22.741 9.64l-0.743-0.571c-0.096-0.079-0.221-0.127-0.357-0.127-0.176 0-0.333 0.080-0.436 0.206l-0.001 0.001-10.288 11.897 0.159 0.177 2.549-2.366c-0.145-0.060-0.246-0.2-0.246-0.364 0-0.028 0.003-0.056 0.009-0.082l-0 0.003c0.038-0.182 0.196-0.317 0.387-0.317 0.088 0 0.169 0.029 0.235 0.077l-0.001-0.001c0.065 0.049 0.114 0.117 0.139 0.196l0.001 0.003 3.359-3.137c0.049-0.040 0.113-0.064 0.182-0.064s0.133 0.024 0.182 0.065l-0.001-0 0.17 0.126c0.046 0.034 0.103 0.054 0.165 0.054 0.086 0 0.163-0.038 0.214-0.099l0-0 4.392-4.96c0.081-0.085 0.131-0.2 0.131-0.327 0-0.088-0.024-0.17-0.065-0.24l0.001 0.002c-0.035-0.060-0.080-0.109-0.134-0.148l-0.001-0.001z"></path>
     <path d="M27.575 12.989c-2.123 1.539-4.606 2.745-7.284 3.477l-0.16 0.037c-2.384 0.638-5.156 1.072-8.006 1.208l-0.091 0.003c0.055 0.406 0.154 0.805 0.295 1.189 1.543 1.406 13.163-0.994 15.433-3.771 0.482-0.577-0.187-2.143-0.187-2.143zM13.776 18.857c-0 0-0 0-0.001 0-0.16 0-0.297-0.098-0.355-0.237l-0.001-0.003c-0.018-0.044-0.029-0.095-0.029-0.148 0-0.107 0.043-0.204 0.113-0.275l-0 0c0.070-0.071 0.167-0.114 0.274-0.114 0.213 0 0.385 0.172 0.385 0.385 0 0.001 0 0.002-0 0.004v-0c0 0.001 0 0.003 0 0.005 0 0.159-0.097 0.296-0.235 0.355l-0.003 0.001c-0.042 0.018-0.091 0.028-0.143 0.028-0.002 0-0.004 0-0.006-0h0zM2.797 12.166l0.091-0.394 1.475 0.337c0.122 0.226 0.197 0.475 0.221 0.731 0.008 0.076 0.013 0.164 0.013 0.252 0 0.198-0.024 0.391-0.068 0.576l0.003-0.017c-0.078 0.385-0.25 0.722-0.49 0.997l0.002-0.003c-0.234 0.267-0.536 0.465-0.874 0.571-0.182 0.059-0.392 0.093-0.61 0.093-0.164 0-0.323-0.019-0.476-0.055l0.014 0.003c-0.371-0.083-0.693-0.259-0.949-0.504l0.001 0.001c-0.254-0.237-0.442-0.541-0.536-0.884l-0.003-0.013c-0.049-0.171-0.076-0.368-0.076-0.571s0.028-0.4 0.080-0.587l-0.004 0.015c0.061-0.28 0.17-0.547 0.323-0.789 0.145-0.22 0.339-0.402 0.567-0.531l0.205 0.314c-0.39 0.243-0.666 0.637-0.748 1.099l-0.001 0.010c-0.031 0.125-0.049 0.268-0.049 0.415 0 0.171 0.024 0.337 0.069 0.494l-0.003-0.013c0.076 0.278 0.227 0.529 0.437 0.726 0.215 0.21 0.485 0.354 0.777 0.417 0.13 0.038 0.28 0.060 0.434 0.060s0.304-0.022 0.446-0.063l-0.011 0.003c0.281-0.096 0.52-0.255 0.707-0.461l0.001-0.001c0.199-0.23 0.335-0.507 0.398-0.806 0.035-0.132 0.056-0.284 0.056-0.44 0-0.234-0.046-0.458-0.129-0.663l0.004 0.012-1.299-0.331zM6.009 8.571l-1.323 1.777 0.567 1.023-0.261 0.354-2.099-3.857 0.244-0.337 4.273 0.926-0.266 0.354-1.135-0.24zM5.634 8.48l-2.269-0.514 1.134 2.051 1.135-1.537zM5.634 4.886l0.34-0.257 2.162 2.914 1.782-1.343 0.215 0.291-2.116 1.594-2.383-3.2zM9.209 2.503l0.381-0.171 1.497 3.303 2.026-0.926 0.147 0.331-2.406 1.103-1.646-3.64zM16.686 3.817l0.086 0.36-2.735 0.646-0.907-3.897 2.655-0.623 0.080 0.354-2.27 0.531 0.323 1.383 1.997-0.474 0.085 0.354-2.003 0.469 0.34 1.446 2.349-0.549zM20.585 3.96l-0.947-1.257c-0.106 0.006-0.211 0.006-0.318 0l-1.066 0.034 0.039 1.269h-0.42l-0.13-4 1.509-0.006c0.049-0.005 0.107-0.008 0.165-0.008 0.39 0 0.75 0.125 1.043 0.337l-0.005-0.004c0.285 0.232 0.465 0.583 0.465 0.976 0 0.007-0 0.013-0 0.020v-0.001c0.017 0.282-0.057 0.563-0.21 0.8-0.162 0.224-0.387 0.394-0.649 0.483l-0.009 0.003 0.993 1.337-0.46 0.017zM20.187 2.080c0.181-0.167 0.293-0.405 0.293-0.669 0-0.028-0.001-0.056-0.004-0.083l0 0.004c0-0.006 0-0.012 0-0.019 0-0.286-0.13-0.542-0.334-0.712l-0.002-0.001c-0.217-0.15-0.485-0.239-0.774-0.239-0.041 0-0.082 0.002-0.122 0.005l0.005-0-1.078 0.040 0.068 2 1.055-0.034c0.015 0.001 0.032 0.001 0.049 0.001 0.319 0 0.612-0.11 0.844-0.294l-0.003 0.002zM23.586 2.897l-0.204 1.366-0.414-0.063 0.209-1.343-1.174-2.857 0.442 0.069 1.005 2.434 1.703-2.017 0.397 0.086-1.963 2.326zM29.198 2.657l0.494 0.646-0.215 0.171-0.494-0.663-0.312 0.749-0.238-0.103 0.318-0.749-0.817 0.109v-0.274l0.806-0.091-0.499-0.646 0.221-0.171 0.437 0.651 0.306-0.754 0.244 0.103-0.289 0.766 0.817-0.114v0.28l-0.777 0.091zM31.093 7.263c-0.128-0.197-0.216-0.432-0.243-0.684l-0.001-0.007 0.335-0.149c0.025 0.226 0.099 0.445 0.216 0.64 0.126 0.219 0.291 0.413 0.487 0.571 0.202 0.195 0.461 0.321 0.738 0.36 0.017 0.002 0.037 0.003 0.058 0.003 0.191 0 0.362-0.087 0.475-0.224l0.001-0.001c0.082-0.091 0.132-0.212 0.132-0.344 0-0.016-0.001-0.031-0.002-0.046l0 0.002c-0.020-0.148-0.068-0.281-0.139-0.399l0.003 0.005c-0.121-0.198-0.235-0.363-0.357-0.523l0.011 0.014c-0.139-0.182-0.275-0.388-0.395-0.602l-0.014-0.026c-0.089-0.155-0.143-0.339-0.147-0.536l-0-0.001c0-0.211 0.078-0.416 0.221-0.571 0.123-0.151 0.287-0.263 0.471-0.326 0.206-0.060 0.424-0.060 0.63 0 0.265 0.087 0.51 0.227 0.721 0.411 0.174 0.146 0.329 0.315 0.459 0.503 0.12 0.174 0.21 0.367 0.266 0.571l-0.323 0.171c-0.061-0.204-0.146-0.383-0.254-0.545l0.005 0.007c-0.111-0.15-0.236-0.279-0.376-0.391l-0.004-0.003c-0.192-0.188-0.444-0.314-0.725-0.348l-0.006-0.001c-0.016-0.001-0.034-0.002-0.052-0.002-0.195 0-0.369 0.092-0.481 0.235l-0.001 0.001c-0.082 0.088-0.133 0.206-0.133 0.336 0 0.018 0.001 0.037 0.003 0.054l-0-0.002c0.013 0.144 0.060 0.283 0.136 0.406 0.079 0.131 0.193 0.303 0.346 0.509 0.151 0.194 0.289 0.401 0.409 0.617 0.094 0.163 0.147 0.349 0.153 0.537 0 0.211-0.079 0.416-0.222 0.571-0.122 0.15-0.284 0.263-0.469 0.324l-0.007 0.002c-0.205 0.063-0.424 0.063-0.63 0-0.28-0.093-0.522-0.234-0.728-0.414l0.003 0.002c-0.226-0.199-0.416-0.433-0.561-0.695l-0.007-0.013zM36.801 8.097l-0.8-1.143 0.295-0.211 1.844 2.651-0.295 0.211-0.8-1.143-2.962 2.086-0.239-0.349 2.957-2.103zM35.53 12.794c0.106-0.356 0.304-0.659 0.565-0.89l0.002-0.002c0.254-0.23 0.569-0.396 0.918-0.472l0.013-0.002c0.138-0.033 0.296-0.052 0.459-0.052 0.217 0 0.425 0.034 0.621 0.096l-0.014-0.004c0.334 0.111 0.633 0.309 0.869 0.571 0.244 0.283 0.41 0.626 0.482 0.994 0.045 0.165 0.071 0.355 0.071 0.551s-0.026 0.386-0.074 0.567l0.003-0.015c-0.109 0.355-0.306 0.657-0.566 0.89l-0.002 0.002c-0.369 0.335-0.862 0.541-1.403 0.541-0.222 0-0.437-0.035-0.638-0.099l0.015 0.004c-0.348-0.112-0.642-0.31-0.867-0.569l-0.002-0.002c-0.235-0.271-0.404-0.606-0.479-0.975l-0.002-0.014c-0.037-0.152-0.058-0.326-0.058-0.505 0-0.219 0.032-0.431 0.091-0.63l-0.004 0.016zM36.273 14.611c0.19 0.217 0.435 0.377 0.709 0.463 0.147 0.045 0.316 0.070 0.491 0.070 0.444 0 0.849-0.165 1.157-0.438l-0.002 0.002c0.209-0.194 0.364-0.44 0.448-0.714 0.042-0.146 0.065-0.315 0.065-0.488 0-0.455-0.164-0.872-0.436-1.195l0.002 0.003c-0.193-0.213-0.441-0.373-0.721-0.46l-0.011-0.003c-0.131-0.037-0.282-0.057-0.437-0.057s-0.306 0.021-0.449 0.060l0.012-0.003c-0.301 0.060-0.564 0.199-0.772 0.395l0.001-0.001c-0.211 0.194-0.366 0.443-0.448 0.72-0.037 0.133-0.058 0.285-0.058 0.443s0.021 0.31 0.061 0.455l-0.003-0.012c0.062 0.283 0.197 0.546 0.391 0.76zM35.099 19.429l1.47-0.571c0-0.103 0.034-0.206 0.062-0.314l0.278-1.034-1.203-0.314 0.107-0.406 3.835 1.034-0.386 1.446c-0.091 0.434-0.327 0.802-0.654 1.060l-0.004 0.003c-0.195 0.138-0.437 0.22-0.699 0.22-0.135 0-0.265-0.022-0.387-0.063l0.009 0.003c-0.283-0.063-0.523-0.217-0.694-0.429l-0.002-0.002c-0.17-0.21-0.273-0.48-0.275-0.775v-0l-1.566 0.571 0.107-0.429zM36.999 19.589c0.135 0.242 0.358 0.421 0.624 0.495l0.007 0.002c0.079 0.022 0.17 0.035 0.264 0.035 0.196 0 0.379-0.055 0.534-0.152l-0.004 0.003c0.25-0.203 0.421-0.488 0.482-0.806l0.272-1.029-1.923-0.52-0.272 1.029c-0.047 0.134-0.074 0.287-0.074 0.448 0 0.178 0.034 0.348 0.095 0.505l-0.003-0.009zM33.062 23.109l-0.289-0.223 1.702-2.257 3.166 2.417-1.646 2.189-0.289-0.223 1.39-1.846-1.135-0.863-1.243 1.651-0.283-0.217 1.271-1.651-1.174-0.897-1.47 1.92zM31.734 27.663l-0.811 0.046v-0.274l0.811-0.006-0.437-0.68 0.221-0.143 0.431 0.686 0.351-0.766 0.244 0.131-0.386 0.72 0.811-0.046v0.28h-0.823l0.437 0.68-0.222 0.143-0.431-0.686-0.375 0.743-0.238-0.137 0.414-0.691zM24.358 27.206l0.687 0.383c0.232-0.445 0.637-0.774 1.123-0.9l0.012-0.003c0.225-0.071 0.463-0.096 0.698-0.074 0.204 0.016 0.4 0.087 0.567 0.206 0.151 0.114 0.263 0.274 0.318 0.457 0.069 0.226 0.057 0.469-0.034 0.686-0.15 0.307-0.34 0.569-0.567 0.794l-0 0c0.187 0.101 0.361 0.226 0.517 0.371 0.107 0.111 0.187 0.246 0.233 0.394 0.015 0.056 0.023 0.121 0.023 0.187 0 0.183-0.064 0.351-0.172 0.483l0.001-0.001c-0.151 0.22-0.377 0.377-0.635 0.44-0.104 0.041-0.225 0.065-0.352 0.065s-0.247-0.024-0.358-0.068l0.007 0.002c-0.203-0.089-0.355-0.266-0.408-0.481l-0.001-0.005c-0.023-0.070-0.036-0.151-0.036-0.235 0-0.122 0.028-0.238 0.078-0.341l-0.002 0.005c0.13-0.26 0.3-0.497 0.505-0.703l-1.367-0.766c-0.032 0.157-0.050 0.337-0.050 0.522 0 0.104 0.006 0.206 0.017 0.307l-0.001-0.012h-0.346c-0.004-0.057-0.007-0.124-0.007-0.192 0-0.286 0.044-0.563 0.125-0.822l-0.005 0.019-0.714-0.4 0.147-0.32zM25.345 27.777l1.503 0.84c0.197-0.19 0.36-0.411 0.482-0.657 0.063-0.166 0.063-0.349 0-0.514-0.054-0.202-0.202-0.36-0.393-0.427l-0.004-0.001c-0.108-0.038-0.233-0.060-0.363-0.060s-0.255 0.022-0.371 0.062l0.008-0.002c-0.396 0.107-0.714 0.378-0.882 0.735l-0.003 0.008 0.023 0.017zM27.478 30.063c0.045-0.075 0.071-0.165 0.071-0.262 0-0.058-0.009-0.113-0.027-0.164l0.001 0.004c-0.037-0.117-0.099-0.217-0.182-0.297l-0-0c-0.145-0.123-0.303-0.229-0.471-0.314-0.168 0.168-0.316 0.355-0.441 0.558l-0.007 0.013c-0.069 0.13-0.085 0.281-0.046 0.423 0.038 0.134 0.128 0.242 0.247 0.302l0.003 0.001c0.145 0.055 0.304 0.055 0.449 0 0.154-0.041 0.289-0.137 0.38-0.269l0.023 0.006zM17.442 31.611l0.079-4h0.402l-0.062 3.2 1.611-2.663h0.199l1.509 2.709 0.057-3.183h0.403l-0.074 4h-0.346l-1.668-2.989-1.765 2.931-0.346-0.006zM15.467 27.429c0.37 0.357 0.6 0.858 0.6 1.412 0 0.202-0.030 0.396-0.087 0.579l0.004-0.014c-0.099 0.367-0.287 0.682-0.539 0.931l-0 0c-0.244 0.242-0.554 0.419-0.901 0.5l-0.013 0.003c-0.363 0.083-0.743 0.071-1.101-0.034-0.373-0.094-0.694-0.275-0.954-0.521l0.001 0.001c-0.249-0.24-0.433-0.546-0.525-0.889l-0.003-0.013c-0.039-0.151-0.061-0.325-0.061-0.504 0-0.589 0.24-1.123 0.628-1.507l0-0c0.241-0.242 0.544-0.421 0.883-0.511l0.014-0.003c0.145-0.034 0.311-0.054 0.482-0.054 0.219 0 0.43 0.032 0.628 0.092l-0.015-0.004c0.36 0.092 0.691 0.277 0.959 0.537zM13.532 27.229c-0.278 0.065-0.531 0.207-0.732 0.411-0.203 0.204-0.354 0.461-0.429 0.748l-0.003 0.012c-0.079 0.286-0.079 0.589 0 0.874 0.067 0.278 0.211 0.531 0.414 0.731 0.214 0.21 0.478 0.362 0.766 0.44 0.289 0.074 0.591 0.074 0.88 0 0.278-0.069 0.532-0.211 0.737-0.411 0.208-0.21 0.357-0.473 0.431-0.76 0.038-0.132 0.059-0.283 0.059-0.44s-0.022-0.308-0.062-0.452l0.003 0.012c-0.077-0.288-0.223-0.535-0.42-0.731l-0-0c-0.208-0.204-0.469-0.356-0.76-0.432l-0.012-0.003c-0.131-0.038-0.282-0.060-0.437-0.060s-0.306 0.022-0.449 0.063l0.011-0.003zM9.237 24.571l0.153 1.571c0.097 0.042 0.192 0.090 0.283 0.143l0.925 0.537 0.624-1.109 0.369 0.211-1.986 3.446-1.294-0.749c-0.383-0.197-0.681-0.515-0.847-0.902l-0.005-0.012c-0.044-0.123-0.069-0.265-0.069-0.412 0-0.25 0.072-0.483 0.197-0.679l-0.003 0.005c0.131-0.25 0.341-0.451 0.596-0.571 0.149-0.064 0.322-0.101 0.504-0.101 0.111 0 0.219 0.014 0.322 0.040l-0.009-0.002-0.165-1.68 0.402 0.263zM8.59 26.377c-0.275 0.071-0.5 0.247-0.635 0.481l-0.003 0.005c-0.085 0.147-0.135 0.323-0.135 0.511 0 0.103 0.015 0.202 0.043 0.296l-0.002-0.007c0.133 0.296 0.363 0.536 0.652 0.68l0.914 0.531 0.993-1.714-0.914-0.531c-0.231-0.176-0.524-0.282-0.841-0.282-0.025 0-0.051 0.001-0.076 0.002l0.004-0v0.029zM5.878 21.891l0.255-0.257 1.958 2.029-2.837 2.789-1.889-1.966 0.261-0.257 1.606 1.663 0.97-0.989-1.407-1.474 0.273-0.263 1.435 1.486 1.055-1.034-1.68-1.726zM1.662 19.646l0.136-0.789 0.267 0.040-0.153 0.811 0.754-0.28 0.091 0.251-0.766 0.263 0.63 0.537-0.182 0.206-0.607-0.571-0.142 0.811-0.272-0.051 0.159-0.811-0.76 0.274-0.086-0.223 0.76-0.269-0.629-0.531 0.187-0.206 0.613 0.537z"></path>
  </symbol>
  <symbol id="icon-menu-close" viewBox="0 0 32 32">
<path d="M23.734 10.304l-1.504-1.504-5.963 5.962-5.962-5.962-1.504 1.504 5.962 5.962-5.962 5.963 1.504 1.504 5.962-5.963 5.963 5.963 1.504-1.504-5.963-5.963 5.963-5.962z"></path>
</symbol>
<symbol id="icon-menu-open" viewBox="0 0 32 32">
<path fill="#fff" style="fill: var(--color1, #fff)" d="M6.4 11.734v-2.134h19.2v2.134h-19.2zM6.4 17.066h19.2v-2.133h-19.2v2.133zM6.4 22.4h19.2v-2.134h-19.2v2.134z"></path>
</symbol>
    <symbol id="icon-facebook" viewBox="0 0 32 32">
      <path d="M21.33 5.313h2.921V.225C23.747.156 22.014 0 19.995 0c-4.212 0-7.097 2.649-7.097 7.519V12H8.25v5.688h4.648V32h5.699V17.689h4.46l.708-5.688h-5.169V8.082c.001-1.644.444-2.769 2.735-2.769z"/>
    </symbol>
    <symbol id="icon-instagram" viewBox="0 0 32 32">
      <path d="M31.969 9.408c-.075-1.7-.35-2.869-.744-3.882a7.806 7.806 0 0 0-1.851-2.838A7.867 7.867 0 0 0 26.542.844C25.523.45 24.36.175 22.66.1 20.947.019 20.403 0 16.059 0s-4.888.019-6.595.094c-1.7.075-2.869.35-3.882.744a7.803 7.803 0 0 0-2.838 1.85A7.867 7.867 0 0 0 .9 5.52C.506 6.539.231 7.702.156 9.402c-.081 1.713-.1 2.257-.1 6.601s.019 4.888.094 6.595c.075 1.7.35 2.869.744 3.882a7.895 7.895 0 0 0 1.85 2.838 7.867 7.867 0 0 0 2.832 1.844c1.019.394 2.182.669 3.882.744 1.706.075 2.25.094 6.595.094s4.888-.019 6.595-.094c1.7-.075 2.869-.35 3.882-.744a8.184 8.184 0 0 0 4.682-4.682c.394-1.019.669-2.182.744-3.882.075-1.707.094-2.251.094-6.595s-.006-4.888-.081-6.595zm-2.882 13.065c-.069 1.563-.331 2.407-.55 2.969a5.31 5.31 0 0 1-3.038 3.038c-.563.219-1.413.481-2.969.55-1.688.075-2.194.094-6.464.094s-4.782-.019-6.464-.094c-1.563-.069-2.407-.331-2.969-.55a4.926 4.926 0 0 1-1.838-1.194 4.974 4.974 0 0 1-1.194-1.838c-.219-.563-.481-1.413-.55-2.969-.075-1.688-.094-2.194-.094-6.464s.019-4.782.094-6.464c.069-1.563.331-2.407.55-2.969a4.868 4.868 0 0 1 1.2-1.838A4.974 4.974 0 0 1 6.639 3.55c.563-.219 1.413-.481 2.969-.55 1.688-.075 2.194-.094 6.464-.094 4.276 0 4.782.019 6.464.094 1.563.069 2.407.331 2.969.55a4.914 4.914 0 0 1 1.838 1.194 4.974 4.974 0 0 1 1.194 1.838c.219.563.481 1.413.55 2.969.075 1.688.094 2.194.094 6.464s-.019 4.77-.094 6.458z"/>
      <path d="M16.059 7.783c-4.538 0-8.22 3.682-8.22 8.22s3.682 8.22 8.22 8.22c4.539 0 8.22-3.682 8.22-8.22s-3.682-8.22-8.22-8.22zm0 13.552a5.333 5.333 0 0 1 0-10.664 5.333 5.333 0 0 1 0 10.664zM26.524 7.458a1.919 1.919 0 1 1-3.838 0 1.919 1.919 0 0 1 3.838 0z"/>
    </symbol>
    <symbol id="icon-linkedin" viewBox="0 0 32 32">
      <path d="M31.992 32v-.001H32V20.263c0-5.741-1.236-10.164-7.948-10.164-3.227 0-5.392 1.771-6.276 3.449h-.093v-2.913h-6.364v21.364h6.627V21.42c0-2.785.528-5.479 3.977-5.479 3.399 0 3.449 3.179 3.449 5.657v10.401h6.62zM.528 10.636h6.635V32H.528V10.636zM3.843 0C1.722 0 0 1.721 0 3.843s1.721 3.879 3.843 3.879c2.121 0 3.843-1.757 3.843-3.879A3.846 3.846 0 0 0 3.843 0z"/>
    </symbol>
    <symbol id="icon-mail" viewBox="0 0 32 32">
      <path fill="none" stroke="#9da4bd" style="stroke:var(--color1, #9da4bd)" stroke-linejoin="round" stroke-linecap="round" stroke-width="1.333" d="M6.4 6.667h19.2c1.32 0 2.4 1.05 2.4 2.333v14c0 1.283-1.08 2.333-2.4 2.333H6.4C5.08 25.333 4 24.283 4 23V9c0-1.283 1.08-2.333 2.4-2.333z"/>
      <path fill="none" stroke="#9da4bd" style="stroke:var(--color1, #9da4bd)" stroke-linejoin="round" stroke-linecap="round" stroke-width="1.333" d="m26.667 9.333-10.667 8-10.667-8"/>
    </symbol>
    <symbol id="icon-map-pin" viewBox="0 0 32 32">
      <path fill="none" stroke="#9da4bd" style="stroke:var(--color1, #9da4bd)" stroke-linejoin="round" stroke-linecap="round" stroke-width="1.333" d="M26.667 13.818C26.667 21.454 16 28 16 28S5.333 21.455 5.333 13.818C5.333 8.396 10.109 4 16 4s10.667 4.396 10.667 9.818v0z"/>
      <path fill="none" stroke="#9da4bd" style="stroke:var(--color1, #9da4bd)" stroke-linejoin="round" stroke-linecap="round" stroke-width="1.333" d="M16 18.667a4 4 0 1 0 0-8 4 4 0 0 0 0 8z"/>
    </symbol>
    <symbol id="icon-phone" viewBox="0 0 32 32">
      <path fill="none" stroke="#9da4bd" style="stroke:var(--color1, #9da4bd)" stroke-linejoin="round" stroke-linecap="round" stroke-width="1.333" d="M26.666 21.337v3.218a2.146 2.146 0 0 1-2.338 2.145 21.239 21.239 0 0 1-9.257-3.293 20.914 20.914 0 0 1-6.436-6.436 21.221 21.221 0 0 1-3.293-9.3 2.144 2.144 0 0 1 2.134-2.338h3.218a2.144 2.144 0 0 1 2.145 1.845c.136 1.03.388 2.041.751 3.014a2.144 2.144 0 0 1-.483 2.263l-1.362 1.362a17.162 17.162 0 0 0 6.436 6.436l1.362-1.362a2.146 2.146 0 0 1 2.263-.483c.973.363 1.984.615 3.014.751a2.144 2.144 0 0 1 1.845 2.177z"/>
    </symbol>
    <symbol id="icon-twitter" viewBox="0 0 32 32">
      <path d="M32 6.078c-1.19.522-2.458.868-3.78 1.036a6.523 6.523 0 0 0 2.886-3.626 13.11 13.11 0 0 1-4.16 1.588A6.574 6.574 0 0 0 22.154 3c-3.632 0-6.556 2.948-6.556 6.562 0 .52.044 1.02.152 1.496-5.454-.266-10.28-2.88-13.522-6.862a6.605 6.605 0 0 0-.898 3.316 6.57 6.57 0 0 0 2.914 5.452 6.479 6.479 0 0 1-2.964-.808v.072c0 3.188 2.274 5.836 5.256 6.446a6.548 6.548 0 0 1-1.72.216 5.8 5.8 0 0 1-1.242-.112c.85 2.598 3.262 4.508 6.13 4.57a13.182 13.182 0 0 1-8.134 2.798c-.538 0-1.054-.024-1.57-.09A18.469 18.469 0 0 0 10.064 29c12.072 0 18.672-10 18.672-18.668 0-.29-.01-.57-.024-.848A13.087 13.087 0 0 0 32 6.078z"/>
    </symbol>
  </defs>
</svg>
